<?xml version="1.0" encoding="UTF-8"?>
<svg  version="1.1" viewBox="0 0 2048 2048" width="512" height="512" xmlns="http://www.w3.org/2000/svg">
<path fill='orange' transform="translate(1305,224)" d="m0 0h7l40 12 53 16 44 13 29 9 43 13 54 16 29 9 47 14 139 42 44 13 29 9 44 13 29 9 43 13 26 8 6 5 5 10v13l-6 9-5 5-9 7-16 8-25 10-9 6-12 11-9 13-8 14-8 21-5 22-3 19-1 12v52l2 27v10l5 1 49 15 28 10 29 12 20 11 10 9 5 5v9l-7 5-21 6-78 19h-2l14 19 8 14 8 17 6 18 6 26 3 24 1 12v45l-4 41-4 23-5 22-7 24-8 20-8 16-11 18-13 16-12 12-13 9h-2v2l10 3 33 10 6 4 6 12 1 7-4 11-8 9-14 9-18 8-16 6-11 7-13 12-11 17-7 14-6 16-6 26-4 37v31l3 41 1 7 42 13 30 10 30 12 17 8 13 8 10 9 3 6-1 6-6 5-15 5-70 17-87 21-79 19-57 14-99 24-75 18-57 14-223 54-67 16-102 25-63 15-57 14-66 16-5 1-43-14-49-16-41-13-36-12-71-23-55-18-47-15-33-11-105-34-160-52-55-18-50-16-13-5-13-7-14-11-8-7-9-11-13-17-10-17-10-23-7-21-6-24-6-35-3-20v-78l2-8 6-31 6-19 7-17 9-17 8-12 8-11h2v-2l8-7-3-2-40-10-10-5-3-3v-9l11-11 21-12 21-9 29-11 41-13 20-6h2l3-40v-48l-3-26-6-27-8-22-8-15-8-11-6-7-15-11-15-6-19-8-12-7-10-9-6-10-1-7 2-8 5-9 7-4 49-15 34-10h3v-3l-4-2-7-8-12-15-9-15-8-15-8-20-6-18-6-24-6-36-3-31v-51l2-22 5-27 8-26 8-19 10-17 10-14 12-13 14-11 13-9 16-8 15-5 22-4 676-94 360-50zm-1120 241-16 4-11 7-7 8-9 14-6 15-4 14-4 26-1 23v21l3 36 3 20 7 28 10 24 10 16 9 10 10 8 13 6 34 9 118 33 49 14 26 7 24 7 26 7 246 69 42 12 154 43 9 2 1-1 8-240-1-4-41-14-104-34-47-15-36-12-101-33-47-15-36-12-101-33-47-15-36-12-98-32-28-9-8-2zm1697 52-23 5-760 156-127 26-3 3-3 90-3 92-1 36v24l333-83 281-70 169-42 73-18 45-11v-10l-3-28-1-15v-53l2-23 4-24 8-29 10-24zm-28 332-13 2-61 20-98 32-43 14-47 15-36 12-50 16-36 12-58 19-47 15-36 12-98 32-108 35-3 2v43l6 181 1 21 9-2 274-77 164-46 182-51 79-22 20-5 16-8 10-9 8-9 8-13 4-8 8-21 7-30 3-26 2-26v-15l-1-26-4-26-3-11-6-17-8-14-11-12-12-6-14-3zm-1690 52 10 24 8 27 5 30 2 32v38l-3 39-1 8v9l9 3 158 39 225 56 129 32 67 17 73 18 177 44 59 15h4l-1-50-6-192-3-2-156-32-156-32-214-44-156-32-72-15-74-15-63-13zm-38 331-15 3-12 6-7 6-11 16-5 11-6 20-4 25-1 17v32l3 36 6 31 5 17 10 23 9 13 9 10 9 8 12 6 45 12 175 49 207 58 42 12 51 14 35 10 150 42 20 6h6l7-219v-26l-45-15-50-16-220-72-41-13-36-12-98-32-50-16-36-12-144-47-13-3zm1693 53-75 15-184 38-195 40-69 14-57 12-33 10-73 24-8 1-23-6-10 1-151 31-33 7-1 1-3 79-4 127-1 37 10-2 225-56 225-56 225-56 213-53 4-2-1-14-3-33-1-16v-20l1-28 3-25 6-29 8-24 7-17z"/>
</svg>
